Coordinates
version=1
nRows=16
nColumns=33
inDegrees=yes

Units are S.I. units (second, meters, Newtons, ...)
Angles are in degrees.

endheader
time	ground_thorax_rot_x	ground_thorax_rot_y	ground_thorax_rot_z	ground_thorax_tx	ground_thorax_ty	ground_thorax_tz	clav_prot_r	clav_elev_r	scapula_abduction_r	scapula_elevation_r	scapula_upward_rot_r	scapula_winging_r	shoulder_elv_r	plane_of_elev_r	axial_rot_r	elbow_flexion_r	pro_sup_r	wrist_flex_r	wrist_dev_r	clav_prot_l	clav_elev_l	scapula_abduction_l	scapula_elevation_l	scapula_upward_rot_l	scapula_winging_l	shoulder_elv_l	plane_of_elev_l	axial_rot_l	elbow_flexion_l	pro_sup_l	wrist_flex_l	wrist_dev_l
      8.38000000	    -90.00000000	     90.00000000	    -90.00000000	   -127.58079423	    861.52213317	    -44.52406521	     31.00536683	     33.85423516	     45.00000000	     45.00000000	     17.52735257	   2146.27639755	   2991.15368281	     33.43968546	    -22.93235933	   2518.38505536	    156.73650590	     15.03178913	     14.73498819	    -45.00000000	     20.57832282	     36.69874542	    -16.78147767	     45.00000000	   2625.07100994	  -5454.34291280	    134.94974000	     21.55790245	   1429.23635744	   -322.98615168	     15.16862287	    -19.98140099
      8.39000000	    -90.00000000	     90.00000000	    -90.00000000	   -127.49472706	    861.77700970	    -44.36692608	     30.69533776	     33.66835361	     45.00000000	     45.00000000	     17.59440942	   2146.23114790	   2991.08331367	     33.37265603	    -22.93654314	   2518.44674052	    156.96037435	     15.28851179	     14.53448517	    -45.00000000	     20.43305323	     36.72198883	    -16.65442338	     45.00000000	   2625.00133395	  -5454.26695938	    134.96922738	     21.97356719	   1429.16047808	   -323.08732725	     15.11725518	    -20.15353772
      8.40000000	    -90.00000000	     90.00000000	    -90.00000000	   -127.38071074	    861.89440799	    -44.19917058	     30.78437311	     33.88020294	     45.00000000	     45.00000000	     17.61583976	   2146.13052893	   2991.11244393	     33.47763138	    -23.04172840	   2518.31613486	    157.25479815	     15.46498384	     14.58733545	    -45.00000000	     20.53545879	     36.72654569	    -16.56683434	     45.00000000	   2624.95747603	  -5454.13384591	    134.93081941	     22.10237079	   1429.24929969	   -323.10309920	     15.06297383	    -20.37691962
      8.41000000	    -90.00000000	     90.00000000	    -90.00000000	   -127.24038310	    861.88862682	    -44.02404881	     30.71246575	     33.74054979	     45.00000000	     45.00000000	     17.75188150	   2146.15654473	   2990.98349523	     33.29713147	    -23.16238482	   2518.40763371	    157.52671855	     15.72439256	     14.29003891	    -45.00000000	     20.37550444	     36.68376459	    -16.68212511	     45.00000000	   2625.03709454	  -5454.26147923	    135.05873595	     22.28142379	   1429.14476134	   -323.00686273	     15.01742019	    -20.51017228
      8.42000000	    -90.00000000	     90.00000000	    -90.00000000	   -127.07783403	    861.77997261	    -43.84870587	     30.67559054	     33.97460442	     45.00000000	     45.00000000	     17.58302495	   2145.91211167	   2991.13074952	     33.56338386	    -23.20921356	   2518.27734026	    157.93636348	     15.77296243	     14.61768848	    -45.00000000	     20.62034112	     36.76048883	    -16.42388013	     45.00000000	   2624.87940145	  -5453.90374094	    134.87840866	     22.48433669	   1429.28081249	   -322.91148936	     14.90366664	    -20.72238611
      8.43000000	    -90.00000000	     90.00000000	    -90.00000000	   -126.88714134	    861.58573744	    -43.66899156	     30.67635373	     33.81739261	     45.00000000	     45.00000000	     17.75695754	   2146.02655297	   2990.93875779	     33.21438491	    -23.41417271	   2518.43196506	    158.24885945	     16.02388593	     14.19370864	    -45.00000000	     20.48816920	     36.67739888	    -16.57495065	     45.00000000	   2624.94775367	  -5454.05129063	    135.03070309	     22.60754480	   1429.29204928	   -322.74220744	     14.85909517	    -20.85610225
      8.44000000	    -90.00000000	     90.00000000	    -90.00000000	   -126.67187061	    861.33020091	    -43.49083068	     30.63055717	     33.99716214	     45.00000000	     45.00000000	     17.60711982	   2145.66834199	   2991.09161788	     33.59607891	    -23.61647294	   2518.26062673	    158.59931210	     16.21874266	     14.39288791	    -45.00000000	     20.55725654	     36.61175048	    -16.69633964	     45.00000000	   2625.07621813	  -5454.13623223	    135.04708246	     22.73074497	   1429.23242704	   -322.60895974	     14.69027068	    -21.03276570
      8.45000000	    -90.00000000	     90.00000000	    -90.00000000	   -126.42605851	    861.03113487	    -43.31009729	     30.65994830	     33.78727526	     45.00000000	     45.00000000	     17.79614333	   2146.04730011	   2990.84510782	     32.92032760	    -23.84511874	   2518.45952575	    158.84259210	     16.30204449	     13.90340394	    -45.00000000	     20.61980394	     36.64783842	    -16.59463012	     45.00000000	   2624.94029823	  -5453.96617789	    135.04181471	     22.89992232	   1429.36341912	   -322.43724872	     14.70184195	    -21.11300190
      8.46000000	    -90.00000000	     90.00000000	    -90.00000000	   -126.14334643	    860.70478656	    -43.12468812	     30.61817163	     33.93453530	     45.00000000	     45.00000000	     17.59800916	   2145.70090283	   2991.00406136	     33.25664105	    -24.06430036	   2518.35281805	    159.20103256	     16.43095061	     14.10264091	    -45.00000000	     20.65250905	     36.56050828	    -16.67235981	     45.00000000	   2624.97494856	  -5453.94517139	    135.07889585	     23.05995707	   1429.44495277	   -322.29695890	     14.53714695	    -21.28940447
      8.47000000	    -90.00000000	     90.00000000	    -90.00000000	   -125.81619989	    860.36764997	    -42.93517709	     30.63606980	     33.86611269	     45.00000000	     45.00000000	     17.58206294	   2145.63521846	   2990.95084712	     33.19197759	    -24.35035727	   2518.37397222	    159.38680937	     16.53350021	     14.04564099	    -45.00000000	     20.76309433	     36.55528647	    -16.91206093	     45.00000000	   2625.18204428	  -5454.19712674	    135.10787185	     23.19957227	   1429.29667790	   -322.16949253	     14.43937970	    -21.41561662
      8.48000000	    -90.00000000	     90.00000000	    -90.00000000	   -125.43051190	    860.02895668	    -42.74206524	     30.60244747	     33.94211548	     45.00000000	     45.00000000	     17.42902226	   2145.57967354	   2991.05049907	     33.17150895	    -24.58779705	   2518.31600191	    159.56207284	     16.54940034	     14.06014337	    -45.00000000	     20.93412824	     36.57887096	    -16.67250952	     45.00000000	   2624.95949460	  -5453.76402925	    135.06009506	     23.46956490	   1429.52578965	   -322.06527749	     14.37120773	    -21.49326308
      8.49000000	    -90.00000000	     90.00000000	    -90.00000000	   -124.96867358	    859.69529729	    -42.54752375	     30.62808328	     33.85900476	     45.00000000	     45.00000000	     17.41632494	   2145.52670475	   2990.98221273	     33.06453493	    -24.88619396	   2518.35386722	    159.67704480	     16.61484805	     14.02916752	    -45.00000000	     20.93395079	     36.47689198	    -16.94001835	     45.00000000	   2625.13356208	  -5453.97842149	    135.20092454	     23.68401623	   1429.49868389	   -321.96178883	     14.28689627	    -21.65549614
      8.50000000	    -90.00000000	     90.00000000	    -90.00000000	   -124.42075079	    859.37753001	    -42.35831077	     30.60851799	     33.90894158	     45.00000000	     45.00000000	     17.22940275	   2145.35628460	   2991.04764968	     33.10340563	    -25.22896024	   2518.28114188	    159.72753886	     16.67008952	     13.94254415	    -45.00000000	     21.05817529	     36.50423461	    -17.06023557	     45.00000000	   2625.24684162	  -5454.03698750	    135.12643349	     23.98733869	   1429.50388620	   -321.85354917	     14.20583391	    -21.66951223
      8.51000000	    -90.00000000	     90.00000000	    -90.00000000	   -123.77369326	    859.07879506	    -42.17843066	     30.63503165	     33.81220925	     45.00000000	     45.00000000	     17.20012563	   2145.41344974	   2991.00012392	     32.89105752	    -25.52278859	   2518.32261823	    159.75906046	     16.65189660	     14.04609665	    -45.00000000	     21.10812999	     36.26302401	    -17.13023192	     45.00000000	   2625.55391621	  -5453.72971014	    135.17354835	     24.35347438	   1429.43963015	   -321.74487409	     14.18942849	    -21.80452775
      8.52000000	    -90.00000000	     90.00000000	    -90.00000000	   -123.01656787	    858.79949443	    -42.01059237	     30.60675246	     33.91195604	     45.00000000	     45.00000000	     17.00672735	   2145.10225737	   2991.12579363	     33.09701998	    -25.95712175	   2518.23505527	    159.71536038	     16.73983790	     13.88111935	    -45.00000000	     21.24071409	     36.47621400	    -17.20624569	     45.00000000	   2625.40303398	  -5453.96977181	    135.30300314	     24.77744031	   1429.63582828	   -321.65324999	     14.09691628	    -21.79829494
      8.53000000	    -90.00000000	     90.00000000	    -90.00000000	   -122.14425502	    858.53894952	    -41.85686539	     30.63417146	     33.78345256	     45.00000000	     45.00000000	     16.93946595	   2145.28665739	   2991.03536332	     32.66824893	    -26.24979377	   2518.27305159	    159.69589365	     16.64318937	     14.11311200	    -45.00000000	     21.22662563	     36.38260960	    -17.27462906	     45.00000000	   2625.64647816	  -5453.80661247	    135.24406210	     25.24016244	   1429.64201453	   -321.54162427	     14.07549212	    -21.96856055
